<svg xmlns="http://www.w3.org/2000/svg" width="47.256" height="49.087" viewBox="0 0 47.256 49.087"><defs><style>.a{fill:#f5f5f5;stroke:#f5f5f5;}.b{fill:#e4e4e4;}.c{fill:#e0dcdc;}.d{fill:#919090;}</style></defs><g transform="translate(-9.25 0.5)"><path class="a" d="M384.755,60.84h-8.421l.228,5.557h5.969v15.86l5.629,2.977V64.245A3.4,3.4,0,0,0,384.755,60.84Z" transform="translate(-332.154 -55.126)"/><path class="a" d="M45.964,0V40.716a7.379,7.379,0,0,1-7.37,7.371H22.765a7.379,7.379,0,0,1-7.371-7.371V12.01L9.75,5.042V0Z" transform="translate(0)"/><path class="b" d="M98.319,223v19.42a7.067,7.067,0,0,1-6.864,7.24H76.714a7.067,7.067,0,0,1-6.864-7.24V223Z" transform="translate(-54.139 -202.056)"/><path class="c" d="M247.593,0V39.9a7.224,7.224,0,0,1-7.208,7.224H232.65V0Z" transform="translate(-201.965 0.478)"/><g transform="translate(20.52 5.98)"><path class="d" d="M283.153,63.667v2.755H279.49V69.24h3.663v2.768H279.49v2.818h3.663v2.4H279.49V80.04h3.663v3.137H279.49v2.818h3.663v2.767H279.49V91.58h3.663v2.768H279.49v2.818h3.663v2.462h2.818V63.667Z" transform="translate(-264.926 -63.667)"/><path class="d" d="M124.417,416.981h2.818v2.8h-2.818Z" transform="translate(-124.417 -383.798)"/><path class="d" d="M171.75,373.8h2.818v2.8H171.75Z" transform="translate(-167.304 -344.676)"/></g></g></svg>