<svg xmlns="http://www.w3.org/2000/svg" width="29.616" height="57.41" viewBox="0 0 29.616 57.41"><defs><style>.a{fill:#fff;}.b{fill:#f3e8d7;}.c{fill:#fc4e51;}.d{fill:#686868;}.e{fill:#e5394b;}</style></defs><g transform="translate(-163.707 0)"><path class="a" d="M182.8,35.361V6.97a6.97,6.97,0,0,0-13.94,0V35.361a12.126,12.126,0,1,0,13.94,0Zm0,0" transform="translate(0 0)"/><path class="b" d="M205.539,85.461a8.375,8.375,0,0,1-2.926-16.222V38.992a2.926,2.926,0,1,1,5.852,0V69.24a8.375,8.375,0,0,1-2.926,16.222Zm0,0" transform="translate(-29.706 -32.022)"/><path class="c" d="M202.613,109.871v24.9a8.375,8.375,0,1,0,5.852,0v-24.9Zm0,0" transform="translate(-29.705 -97.551)"/><g transform="translate(186.565 4.432)"><path class="d" d="M373.447,166.5h-5.026a.866.866,0,1,1,0-1.733h5.026a.866.866,0,1,1,0,1.733Zm0,0" transform="translate(-367.554 -150.722)"/><path class="d" d="M370.7,103.878h-2.282a.866.866,0,1,1,0-1.733H370.7a.866.866,0,0,1,0,1.733Zm0,0" transform="translate(-367.555 -95.123)"/><path class="d" d="M371.512,41.256h-3.091a.866.866,0,0,1,0-1.733h3.091a.866.866,0,1,1,0,1.733Zm0,0" transform="translate(-367.555 -39.523)"/><path class="d" d="M371.512,291.741h-3.091a.866.866,0,0,1,0-1.733h3.091a.866.866,0,0,1,0,1.733Zm0,0" transform="translate(-367.555 -261.921)"/><path class="d" d="M370.7,229.12h-2.282a.866.866,0,1,1,0-1.733H370.7a.866.866,0,0,1,0,1.733Zm0,0" transform="translate(-367.555 -206.322)"/></g><path class="e" d="M246.05,134.769v-24.9H240.2v24.9s4.045,1.877,4.045,7.846a8.385,8.385,0,0,1-4.747,7.548,8.374,8.374,0,1,0,6.554-15.394Zm0,0" transform="translate(-67.29 -97.551)"/></g></svg>