<svg xmlns="http://www.w3.org/2000/svg" width="11.615" height="45.745" viewBox="0 0 11.615 45.745"><defs><style>.a{fill:#edfdf9;}.b{fill:#ffa058;}.c{fill:#0ec098;}</style></defs><g transform="translate(202.615) rotate(90)"><path class="a" d="M10,200.977H53.958v9.832H10Z" transform="translate(-9.107 -9.086)"/><path class="b" d="M341.154,200.977h5.072v9.832h-5.072Z" transform="translate(-310.673 -9.086)"/><path class="c" d="M70.243,301.055a.891.891,0,1,0,.893.891A.893.893,0,0,0,70.243,301.055Z" transform="translate(-63.154 -100.222)"/><path class="c" d="M45.483,191.261a.9.9,0,0,0-.632-.261H.893a.893.893,0,0,0-.893.891v9.833a.893.893,0,0,0,.893.891H3.069a.891.891,0,1,0,0-1.782H1.787v-8.051H5.072v2.307a.893.893,0,0,0,1.787,0v-2.307h3.285v3.985a.893.893,0,0,0,1.787,0v-3.985h3.285v2.307a.893.893,0,0,0,1.787,0v-2.307h3.285v3.985a.893.893,0,0,0,1.787,0v-3.985h2.439v2.307a.893.893,0,0,0,1.787,0v-2.307h3.286v8.051H11.11a.891.891,0,1,0,0,1.782H44.852a.893.893,0,0,0,.893-.891v-9.833a.9.9,0,0,0-.262-.63Zm-14.109,1.521h3.285v8.051H31.374Zm12.584,8.051H36.446v-8.051h3.285v3.985a.893.893,0,0,0,1.787,0v-3.985h2.44Z" transform="translate(0)"/></g></svg>